<svg id="Camada_1" data-name="Camada 1" xmlns="http://www.w3.org/2000/svg" viewBox="0 0 94.5 94.5"><defs><style>.cls-1{fill:none;}</style></defs><title>pesquisa_td_icones_frança_transformacao_landing</title><circle class="cls-1" cx="35.73" cy="85.05" r="1.5"/><path class="cls-1" d="M23.05,4.64A1.49,1.49,0,0,0,22,5.08a1.5,1.5,0,1,0,2.13,0A1.48,1.48,0,0,0,23.05,4.64Z"/><circle class="cls-1" cx="58.27" cy="8.95" r="1.5"/><path class="cls-1" d="M9,34.23a1.5,1.5,0,1,0,1.5,1.5A1.5,1.5,0,0,0,9,34.23Z"/><path class="cls-1" d="M6.14,69.45a1.5,1.5,0,0,0-1.06.44A1.47,1.47,0,0,0,4.64,71,1.44,1.44,0,0,0,5.08,72a1.46,1.46,0,0,0,1.06.44A1.5,1.5,0,0,0,7.64,71a1.5,1.5,0,0,0-1.5-1.5Z"/><path class="cls-1" d="M72,88.92A1.5,1.5,0,0,0,71,86.36a1.53,1.53,0,0,0-1.06.44,1.51,1.51,0,0,0,0,2.12A1.49,1.49,0,0,0,72,88.92Z"/><path class="cls-1" d="M85.05,59.77a1.5,1.5,0,1,0-1.5-1.5A1.5,1.5,0,0,0,85.05,59.77Z"/><path class="cls-1" d="M87.86,24.55a1.5,1.5,0,0,0,1.06-.44,1.47,1.47,0,0,0,.44-1.06,1.5,1.5,0,0,0-1.5-1.5A1.47,1.47,0,0,0,86.8,22a1.5,1.5,0,0,0-.44,1.06,1.5,1.5,0,0,0,1.5,1.5Z"/><path d="M90.93,45.93H69.7v-3h5.73a1.32,1.32,0,1,0,0-2.63H69.7v-3h4a5.51,5.51,0,0,0,3.92-1.63L86.27,27a4.12,4.12,0,1,0-1.86-1.86l-8.67,8.67a2.89,2.89,0,0,1-2.06.85h-4V31.75a7,7,0,0,0-7-6.95H59.84V13.12a4.13,4.13,0,1,0-2.64,0V24.8h-3V19.07a1.32,1.32,0,1,0-2.63,0V24.8h-3V3.57a1.32,1.32,0,0,0-2.64,0V24.8h-3v-.55h0V19.07a1.32,1.32,0,1,0-2.63,0V24.8h-3v-.55h0V20.82a5.51,5.51,0,0,0-1.63-3.92L27,8.22a4.14,4.14,0,1,0-1.87,1.87l8.68,8.67a2.89,2.89,0,0,1,.85,2.06v4H31.75a6.23,6.23,0,0,0-1.06.09l-.29.05L30,25l-.24.09a7,7,0,0,0-4.72,4.82L25,30s0,.1,0,.15a4.51,4.51,0,0,0-.1.53,2.34,2.34,0,0,0,0,.26,6.49,6.49,0,0,0-.05.77v2.94H13.12a4.13,4.13,0,1,0,0,2.64H24.8v3H19.07a1.32,1.32,0,1,0,0,2.63H24.8v3H3.57a1.32,1.32,0,1,0,0,2.64H24.8v3H19.07a1.32,1.32,0,1,0,0,2.63H24.8v3h-4a5.51,5.51,0,0,0-3.92,1.63L8.23,67.5a4.12,4.12,0,1,0,1.86,1.86l8.67-8.67a2.89,2.89,0,0,1,2.06-.85h4v2.91a7,7,0,0,0,.05.8l0,.25c0,.18.07.37.11.55s0,.09,0,.14l0,.05a6.94,6.94,0,0,0,4.66,4.85,1.23,1.23,0,0,0,.43.21,7.2,7.2,0,0,0,1.73.22h2.8V81.37a4.13,4.13,0,1,0,2.64,0V69.82h3v5.61a1.32,1.32,0,1,0,2.63,0V69.82h3V90.93a1.32,1.32,0,1,0,2.64,0V70.36h0v-.54h3v5.61a1.32,1.32,0,1,0,2.63,0V70.36h0v-.54h3v3.86a5.51,5.51,0,0,0,1.63,3.92l8.67,8.68a4.14,4.14,0,1,0,1.87-1.87l-8.68-8.67a2.89,2.89,0,0,1-.85-2.06V70.36h0v-.54h3a7,7,0,0,0,7-7v-3H81.38a4.13,4.13,0,1,0,0-2.64H69.82v-3h5.61a1.32,1.32,0,1,0,0-2.63H69.82v-3H90.93a1.32,1.32,0,0,0,0-2.64ZM87.05,22.24a1.47,1.47,0,0,1,1.06-.44,1.5,1.5,0,0,1,1.5,1.5,1.47,1.47,0,0,1-.44,1.06,1.5,1.5,0,0,1-1.06.44,1.5,1.5,0,0,1-1.5-1.5A1.5,1.5,0,0,1,87.05,22.24ZM24.36,7.45a1.5,1.5,0,0,1-2.13-2.12,1.51,1.51,0,0,1,2.13,0A1.51,1.51,0,0,1,24.36,7.45ZM9.2,37.48A1.5,1.5,0,1,1,10.7,36,1.51,1.51,0,0,1,9.2,37.48ZM7.45,72.26a1.47,1.47,0,0,1-1.06.44,1.5,1.5,0,0,1-1.5-1.5,1.47,1.47,0,0,1,.44-1.06,1.5,1.5,0,0,1,1.06-.44,1.5,1.5,0,0,1,1.5,1.5A1.5,1.5,0,0,1,7.45,72.26ZM70.14,87.05a1.53,1.53,0,0,1,1.06-.44,1.5,1.5,0,1,1-1.06,2.56A1.51,1.51,0,0,1,70.14,87.05ZM57,9.2a1.5,1.5,0,1,1,1.5,1.5A1.51,1.51,0,0,1,57,9.2ZM37.48,85.3A1.5,1.5,0,1,1,36,83.8,1.5,1.5,0,0,1,37.48,85.3ZM67.07,62.75a15.17,15.17,0,0,1-.17,1.59,4.3,4.3,0,0,1-2.55,2.56s-.1.17-1.6.17h-31a4.32,4.32,0,0,1-4.21-3.38l0-.16a3.94,3.94,0,0,1-.08-.77h0v-31a4.15,4.15,0,0,1,.08-.79l0-.14a4.34,4.34,0,0,1,3.36-3.3l.17,0a5.05,5.05,0,0,1,.68-.06h31a4.33,4.33,0,0,1,4.32,4.32ZM85.3,57a1.5,1.5,0,1,1-1.5,1.5A1.5,1.5,0,0,1,85.3,57Z"/></svg>